<svg width="25" height="25" viewBox="0 0 25 25" fill="none" xmlns="http://www.w3.org/2000/svg">
<g clip-path="url(#clip0_5084_4729)">
<path d="M23.1146 1.88569C22.7598 1.5324 22.3386 1.2529 21.8752 1.06335C21.4118 0.873797 20.9154 0.777947 20.4148 0.781337C19.9142 0.784727 19.4192 0.88729 18.9583 1.0831C18.4976 1.27891 18.0801 1.56409 17.7302 1.92215L2.62604 17.0263L0.78125 24.219L7.97396 22.3742L23.0781 7.27007C23.4361 6.92014 23.7214 6.50272 23.9172 6.04193C24.113 5.58115 24.2155 5.08614 24.219 4.58548C24.2223 4.08483 24.1265 3.58847 23.937 3.12508C23.7474 2.66168 23.4679 2.24044 23.1146 1.88569Z" stroke="black" stroke-width="1.5" stroke-linecap="round" stroke-linejoin="round"/>
<path d="M17.2988 2.35352L22.6467 7.70143" stroke="black" stroke-width="1.5" stroke-linecap="round" stroke-linejoin="round"/>
<path d="M15.1172 4.53516L20.4651 9.88307" stroke="black" stroke-width="1.5" stroke-linecap="round" stroke-linejoin="round"/>
<path d="M2.62695 17.0254L7.98008 22.3681" stroke="black" stroke-width="1.5" stroke-linecap="round" stroke-linejoin="round"/>
</g>
<defs>
<clipPath id="clip0_5084_4729">
<rect width="25" height="25" fill="white"/>
</clipPath>
</defs>
</svg>
